<svg width="434" height="70" viewBox="0 0 434 70" fill="none" xmlns="http://www.w3.org/2000/svg">
<path d="M0.454546 70V0.181816H24.0455C29.5 0.181816 33.9773 1.11363 37.4773 2.97727C40.9773 4.81818 43.5682 7.35227 45.25 10.5795C46.9318 13.8068 47.7727 17.4773 47.7727 21.5909C47.7727 25.7045 46.9318 29.3523 45.25 32.5341C43.5682 35.7159 40.9886 38.2159 37.5114 40.0341C34.0341 41.8295 29.5909 42.7273 24.1818 42.7273H5.09091V35.0909H23.9091C27.6364 35.0909 30.6364 34.5455 32.9091 33.4545C35.2045 32.3636 36.8636 30.8182 37.8864 28.8182C38.9318 26.7955 39.4545 24.3864 39.4545 21.5909C39.4545 18.7955 38.9318 16.3523 37.8864 14.2614C36.8409 12.1705 35.1705 10.5568 32.875 9.42045C30.5795 8.26136 27.5455 7.68182 23.7727 7.68182H8.90909V70H0.454546ZM33.3182 38.6364L50.5 70H40.6818L23.7727 38.6364H33.3182ZM61.8608 70V0.181816H103.997V7.68182H70.3153V31.2727H101.815V38.7727H70.3153V62.5H104.543V70H61.8608ZM122.099 0.181816L142.827 58.9545H143.645L164.372 0.181816H173.236L147.599 70H138.872L113.236 0.181816H122.099ZM184.111 70V0.181816H226.247V7.68182H192.565V31.2727H224.065V38.7727H192.565V62.5H226.793V70H184.111ZM296.849 0.181816V70H288.668L250.622 15.1818H249.94V70H241.486V0.181816H249.668L287.849 55.1364H288.531V0.181816H296.849ZM335.312 70H313.767V0.181816H336.267C343.04 0.181816 348.835 1.57954 353.653 4.375C358.472 7.14772 362.165 11.1364 364.733 16.3409C367.301 21.5227 368.585 27.7273 368.585 34.9545C368.585 42.2273 367.29 48.4886 364.699 53.7386C362.108 58.9659 358.335 62.9886 353.381 65.8068C348.426 68.6023 342.403 70 335.312 70ZM322.222 62.5H334.767C340.54 62.5 345.324 61.3864 349.119 59.1591C352.915 56.9318 355.744 53.7614 357.608 49.6477C359.472 45.5341 360.403 40.6364 360.403 34.9545C360.403 29.3182 359.483 24.4659 357.642 20.3977C355.801 16.3068 353.051 13.1705 349.392 10.9886C345.733 8.78409 341.176 7.68182 335.722 7.68182H322.222V62.5ZM382.349 70H373.486L399.122 0.181816H407.849L433.486 70H424.622L403.759 11.2273H403.213L382.349 70ZM385.622 42.7273H421.349V50.2273H385.622V42.7273Z" fill="#EE0707"/>
</svg>
